<?xml version="1.0" encoding="UTF-8" standalone="no"?>
<svg
   xmlns:dc="http://purl.org/dc/elements/1.1/"
   xmlns:cc="http://creativecommons.org/ns#"
   xmlns:rdf="http://www.w3.org/1999/02/22-rdf-syntax-ns#"
   xmlns:svg="http://www.w3.org/2000/svg"
   xmlns="http://www.w3.org/2000/svg"
   version="1.1"
   id="svg2"
   width="640"
   height="640"
   viewBox="0 0 640 640">
  <metadata
     id="metadata8">
    <rdf:RDF>
      <cc:Work
         rdf:about="">
        <dc:format>image/svg+xml</dc:format>
        <dc:type
           rdf:resource="http://purl.org/dc/dcmitype/StillImage" />
        <dc:title></dc:title>
      </cc:Work>
    </rdf:RDF>
  </metadata>
  <defs
     id="defs6" />
  <g
     id="g10">
    <g
       id="g839"
       transform="translate(0.9606927,0.15045237)">
      <path
         style="fill:#fdfdfd"
         d="M 0,320 V 0 H 320 640 V 320 640 H 320 0 Z M 613.08205,573.23422 616,569.96845 v -87.4073 -87.4073 l -2.9399,-2.93991 c -3.70649,-3.70649 -6.34512,-4.21358 -21.9351,-4.21549 l -12.625,-0.002 -2.66623,-11.05585 C 570.52606,354.93201 560.75071,339.61224 545.88306,330.00282 522.7748,315.06723 492.13173,320.19526 458.5,344.62612 424.50383,369.32171 404.73274,379 388.27999,379 c -16.84976,0 -24.96612,-10.09095 -27.25246,-33.88256 -1.01057,-10.51603 0.0532,-27.35554 2.64442,-41.86289 L 365.32498,294 h 6.76608 c 4.81765,0 7.21861,-0.45252 8.33751,-1.57143 0.86429,-0.86428 1.5651,-1.87678 1.55736,-2.25 -0.008,-0.37321 -1.79253,-3.94107 -3.96621,-7.92857 -2.17368,-3.9875 -3.53319,-7.25 -3.02112,-7.25 1.66471,0 3.24173,-4.00549 2.11265,-5.36595 -0.78218,-0.94248 0.57421,-1.65966 5.68061,-3.00358 8.94806,-2.35499 25.43619,-10.28583 34.70432,-16.69288 9.96573,-6.8893 23.82416,-21.61739 29.89594,-31.772 C 465.4521,187.9616 469.6997,141.61464 457.90699,103.4343 447.68627,70.343437 422.49173,44.822811 389,33.635455 363.849,25.23418 335.98346,29.156879 311.46459,44.550299 c -31.5597,19.813787 -48.18123,49.482119 -51.65377,92.198551 -1.44654,17.79412 -0.065,35.07156 4.13356,51.69625 9.6346,38.14878 36.40721,66.32564 73.71089,77.57709 7.47873,2.25572 8.14239,2.66697 8,4.95738 -0.10363,1.6669 0.54091,2.80725 1.93786,3.4286 2.0471,0.91052 2.00353,1.10035 -1.98077,8.63088 C 340.41912,292.85452 341.00326,294 351.2019,294 h 6.95701 l -0.57039,2.75 c -4.26264,20.55134 -5.30955,48.27796 -2.28471,60.50893 3.32117,13.42918 9.25208,21.90241 18.51459,26.45098 4.88929,2.40101 6.86694,2.78585 14.1816,2.75966 17.4866,-0.0626 38.28383,-9.74902 69.5,-32.37003 25.97201,-18.82079 40.66621,-25.05126 59.16091,-25.08476 14.68958,-0.0266 24.91277,4.49861 35.33619,15.64128 9.08387,9.71068 14.22304,21.09319 18.55381,41.09394 L 571.0381,388 H 423.58032 276.12255 l -0.5209,-4.25 c -0.2865,-2.3375 -0.75193,-11.9 -1.03429,-21.25 -0.73235,-24.25052 -3.59535,-36.71185 -12.40656,-54 -3.6613,-7.18372 -6.41074,-10.83887 -13.6239,-18.11192 -7.4248,-7.48643 -10.55323,-9.8492 -17.5369,-13.24489 -12.5525,-6.10343 -19.26329,-7.58514 -34,-7.50701 -14.07956,0.0746 -24.23635,2.47899 -37.64778,8.91206 -34.13659,16.37435 -58.8901,56.45793 -62.010161,100.41364 L 96.71287,387.82594 81.278038,388.16297 65.843205,388.5 62.421603,392.23531 59,395.97063 v 85.94959 c 0,53.41484 0.369098,86.92038 0.975074,88.51422 0.536291,1.41055 2.448791,3.46457 4.25,4.56448 3.256291,1.98847 4.818836,1.99843 274.606976,1.75046 L 610.16411,576.5 Z M 394.5,541.90156 c -9.03434,-1.28672 -18.29803,-6.36921 -22.18117,-12.16963 -5.02016,-7.49883 -5.47256,-11.90299 -5.12887,-49.92961 0.30465,-33.70643 0.35159,-34.39428 2.7019,-39.59582 4.83782,-10.70675 15.01171,-16.12349 31.85409,-16.95964 11.71724,-0.5817 20.40462,0.78227 27.32817,4.2907 11.97615,6.06878 15.01134,11.59081 15.71121,28.58401 L 445.27454,468 429.38727,467.994 413.5,467.988 l -0.0528,-9.11311 c -0.0449,-7.7419 -0.33696,-9.32087 -1.94112,-10.49386 C 408.72132,446.34452 403.33819,446.66181 401,449 c -1.91756,1.91756 -2,3.33333 -2,34.34501 0,30.06533 0.12889,32.46166 1.82874,34 2.19924,1.99029 8.08546,2.16943 10.61069,0.32294 1.47337,-1.07735 1.91839,-3.18066 2.32739,-11 L 414.27252,497 H 429.63626 445 v 10.3185 c 0,12.70608 -1.80501,19.35303 -6.73822,24.8135 -4.73509,5.24117 -9.92184,7.79388 -19.19909,9.449 -8.42362,1.50282 -15.60386,1.59653 -24.56269,0.32056 z m 122.74815,-1.28925 c -14.17035,-3.5798 -20.36168,-11.88946 -21.07903,-28.29112 L 495.76144,503 H 511.38072 527 v 5.77749 c 0,7.57893 1.79322,10.22251 6.93426,10.22251 2.24939,0 4.35586,-0.64465 5.12168,-1.56741 1.81051,-2.18152 1.79031,-10.70455 -0.0306,-12.90047 -0.81104,-0.97809 -7.63703,-6.45741 -15.16887,-12.17626 -23.39094,-17.76051 -26.67305,-22.85349 -25.61136,-39.74221 0.81593,-12.97927 5.04101,-20.12695 14.86619,-25.14953 13.30427,-6.80105 37.26984,-5.39388 48.03993,2.82075 6.58368,5.02153 9.27793,11.25568 9.69526,22.43352 L 571.19306,462 H 556.09653 541 v -6.37756 c 0,-6.75032 -0.69971,-8.007 -5.06882,-9.10358 -5.80414,-1.45674 -9.61381,6.83518 -5.33345,11.6085 1.04625,1.16674 7.1771,6.14775 13.62412,11.06892 16.29077,12.43515 20.8974,16.78406 24.31569,22.95537 2.84004,5.12733 2.96246,5.86492 2.96246,17.84835 0,10.9921 -0.26726,12.99972 -2.21551,16.64255 -2.8413,5.31265 -9.25152,10.78702 -15.15108,12.93911 -6.1919,2.25873 -29.45133,2.90865 -36.88526,1.03065 z M 107.67028,540.25 c -0.24626,-0.4125 5.23968,-26.52073 12.19098,-58.01828 L 132.5,424.96344 l 18.97771,0.26828 18.9777,0.26828 11.70529,54 c 6.43791,29.7 12.00196,55.69914 12.36456,57.77586 l 0.65927,3.77586 -15.82409,-0.27586 L 163.53635,540.5 161.84401,528 c -0.93079,-6.875 -1.72647,-12.6125 -1.76818,-12.75 -0.0417,-0.1375 -4.06387,-0.25 -8.93815,-0.25 h -8.86232 l -0.65643,5.58526 c -0.36105,3.07189 -1.1527,8.92189 -1.75925,13 L 138.75688,541 h -15.31942 c -8.42569,0 -15.52091,-0.3375 -15.76718,-0.75 z m 49.2562,-49 c -0.0404,-0.9625 -1.29001,-10.075 -2.77683,-20.25 l -2.70332,-18.5 -2.24029,15.5 c -1.23216,8.525 -2.51875,17.6375 -2.85909,20.25 l -0.6188,4.75 h 5.63593 c 4.72888,0 5.62409,-0.28164 5.5624,-1.75 z M 215.5,539.11455 c -2.2,-1.01284 -4.7875,-3.20989 -5.75,-4.88233 -2.49259,-4.33113 -2.32136,-12.23614 0.3383,-15.61734 8.42515,-10.71084 24.89635,-5.26794 24.90796,8.23083 0.005,5.69376 -2.4974,9.73438 -7.54014,12.17553 -5.02033,2.4303 -6.84892,2.44457 -11.95612,0.0933 z m 35.16667,1.21878 C 250.3,539.96667 250,513.86667 250,482.33333 V 425 H 280.5 311 V 436.5 448 H 296.5 282 v 10.97097 10.97098 l 13.25,0.27902 13.25,0.27903 0.28275,11.25 0.28275,11.25 H 295.53275 282 v 11.97254 11.97255 l 14.25,0.27745 14.25,0.27746 0.28174,11.75 0.28173,11.75 H 281.1984 c -16.42579,0 -30.16507,-0.3 -30.53173,-0.66667 z M 333.5,539.11455 c -4.96361,-2.28516 -7.66667,-6.76574 -7.66667,-12.70826 0,-8.46034 6.05848,-13.78439 14.9388,-13.12785 4.12702,0.30512 5.92238,1.01276 8.26595,3.25804 7.15235,6.85239 5.40401,18.54341 -3.36876,22.52657 -5.19884,2.36047 -7.13618,2.36867 -12.16932,0.0515 z m 130.70685,-0.10694 c -3.3711,-1.52999 -4.72325,-2.92079 -6.29575,-6.47568 -2.56334,-5.79486 -1.76014,-10.63483 2.54433,-15.33182 2.60662,-2.84432 4.05941,-3.54316 8.19099,-3.94016 9.02766,-0.86744 15.34222,4.72141 15.34984,13.58576 0.005,5.69376 -2.4974,9.73438 -7.54014,12.17553 -5.06141,2.45019 -6.82495,2.44822 -12.24927,-0.0136 z M 104,384.37834 c 0,-1.99192 0.69754,-8.31936 1.55009,-14.06099 7.86904,-52.99525 43.83632,-90.79186 88.54713,-93.05071 19.88705,-1.00472 36.42221,5.08695 49.37395,18.18972 C 260.821,313.00849 268,335.98481 268,373.96059 V 388 H 186 104 Z M 274,124 c -2.71077,-2.71077 -2.52571,-5.63586 1.02754,-16.2416 11.37153,-33.941742 34.46656,-57.864463 63.57081,-65.849101 8.64434,-2.371538 11.73722,-1.692752 12.87104,2.824769 1.09323,4.355761 -1.46308,6.540321 -11.08626,9.474045 -25.77599,7.858075 -45.2869,29.572238 -54.84521,61.038547 C 282.93472,123.81651 281.31595,126 277.56574,126 276.70458,126 275.1,125.1 274,124 Z"
         id="path855" />
      <path
         style="fill:#9cacde"
         d="m 436,534.62244 c 0,-0.20765 0.7875,-0.99515 1.75,-1.75 1.58606,-1.24387 1.62143,-1.2085 0.37756,0.37756 C 436.82119,534.91575 436,535.44548 436,534.62244 Z m -200.92105,-8.20577 c 0.048,-1.16495 0.28494,-1.4019 0.60416,-0.60417 0.28887,0.72187 0.25335,1.58438 -0.0789,1.91667 -0.3323,0.33229 -0.56864,-0.25834 -0.52522,-1.3125 z m 249,0 c 0.048,-1.16495 0.28494,-1.4019 0.60416,-0.60417 0.28887,0.72187 0.25335,1.58438 -0.0789,1.91667 -0.33229,0.33229 -0.56864,-0.25834 -0.52522,-1.3125 z M 413.33621,505 c 0,-4.125 0.17651,-5.8125 0.39226,-3.75 0.21574,2.0625 0.21574,5.4375 0,7.5 -0.21575,2.0625 -0.39226,0.375 -0.39226,-3.75 z m 158.82168,5 c 0,-1.375 0.22698,-1.9375 0.50439,-1.25 0.27741,0.6875 0.27741,1.8125 0,2.5 -0.27741,0.6875 -0.50439,0.125 -0.50439,-1.25 z m -126.88553,-4 c 0,-2.475 0.19502,-3.4875 0.43337,-2.25 0.23836,1.2375 0.23836,3.2625 0,4.5 -0.23835,1.2375 -0.43337,0.225 -0.43337,-2.25 z M 288.25,493.25845 c 3.7125,-0.19241 9.7875,-0.19241 13.5,0 3.7125,0.19241 0.675,0.34983 -6.75,0.34983 -7.425,0 -10.4625,-0.15742 -6.75,-0.34983 z M 505.40499,477.75 503.5,475.5 l 2.25,1.90499 c 2.11444,1.79022 2.70524,2.59501 1.90499,2.59501 -0.18976,0 -1.20226,-1.0125 -2.25,-2.25 z M 413.32814,460.5 c 0.004,-3.85 0.18518,-5.30246 0.40166,-3.2277 0.21647,2.07477 0.21284,5.22477 -0.008,7 -0.22091,1.77524 -0.39803,0.0777 -0.39359,-3.7723 z M 75.75,388.25749 c 3.9875,-0.18981 10.5125,-0.18981 14.5,0 3.9875,0.18982 0.725,0.34512 -7.25,0.34512 -7.975,0 -11.2375,-0.1553 -7.25,-0.34512 z m 57.25,0.009 c 77.03786,-0.68924 136.00041,-0.69661 136.00021,-0.017 -1.1e-4,0.4125 -37.23771,0.64446 -82.75021,0.51546 -45.5125,-0.129 -69.475,-0.35331 -53.25,-0.49848 z m 216.82842,-0.0169 c 40.88064,-0.14462 107.48064,-0.1446 148,4e-5 40.51937,0.14464 7.07158,0.26296 -74.32842,0.26293 -81.4,-2e-5 -114.55221,-0.11836 -73.67158,-0.26297 z m 234.92158,0.007 c 3.9875,-0.18981 10.5125,-0.18981 14.5,0 3.9875,0.18982 0.725,0.34512 -7.25,0.34512 -7.975,0 -11.2375,-0.1553 -7.25,-0.34512 z M 554.87244,337.25 c -1.24387,-1.58606 -1.2085,-1.62143 0.37756,-0.37756 0.9625,0.75485 1.75,1.54235 1.75,1.75 0,0.82304 -0.82119,0.29331 -2.12756,-1.37244 z M 515.75,321.33772 c 0.6875,-0.27741 1.8125,-0.27741 2.5,0 0.6875,0.27741 0.125,0.50439 -1.25,0.50439 -1.375,0 -1.9375,-0.22698 -1.25,-0.50439 z M 288.87244,236.25 c -1.24387,-1.58606 -1.2085,-1.62143 0.37756,-0.37756 1.66575,1.30637 2.19548,2.12756 1.37244,2.12756 -0.20765,0 -0.99515,-0.7875 -1.75,-1.75 z m -29.79349,-76.83333 c 0.048,-1.16495 0.28494,-1.4019 0.60416,-0.60417 0.28887,0.72187 0.25335,1.58437 -0.0789,1.91667 -0.33229,0.33229 -0.56864,-0.25834 -0.52522,-1.3125 z M 464.30987,149.5 c 0.006,-3.3 0.1923,-4.52944 0.41486,-2.73209 0.22256,1.79735 0.21797,4.49735 -0.0102,6 -0.22818,1.50265 -0.41027,0.0321 -0.40466,-3.26791 z m -205.23092,-8.08333 c 0.048,-1.16495 0.28494,-1.4019 0.60416,-0.60417 0.28887,0.72187 0.25335,1.58437 -0.0789,1.91667 -0.33229,0.33229 -0.56864,-0.25834 -0.52522,-1.3125 z M 304,78.622445 c 0,-0.207656 0.7875,-0.995156 1.75,-1.75 1.58606,-1.243871 1.62143,-1.208501 0.37756,0.377555 C 304.82119,78.915748 304,79.445479 304,78.622445 Z m -9,-9 c 0,-0.207656 0.7875,-0.995156 1.75,-1.75 1.58606,-1.243871 1.62143,-1.208501 0.37756,0.377555 C 295.82119,69.915748 295,70.445479 295,69.622445 Z m 9,-9 c 0,-0.207656 0.7875,-0.995156 1.75,-1.75 1.58606,-1.243871 1.62143,-1.208501 0.37756,0.377555 C 304.82119,60.915748 304,61.445479 304,60.622445 Z"
         id="path853" />
      <path
         style="fill:#9fa1a6"
         d="m 386.25,379.31067 c 0.9625,-0.25152 2.5375,-0.25152 3.5,0 0.9625,0.25153 0.175,0.45733 -1.75,0.45733 -1.925,0 -2.7125,-0.2058 -1.75,-0.45733 z M 353.15789,330 c 0,-1.375 0.22698,-1.9375 0.50439,-1.25 0.27741,0.6875 0.27741,1.8125 0,2.5 -0.27741,0.6875 -0.50439,0.125 -0.50439,-1.25 z m 6.92106,-0.58333 c 0.048,-1.16495 0.28494,-1.4019 0.60416,-0.60417 0.28887,0.72187 0.25335,1.58438 -0.0789,1.91667 -0.33229,0.33229 -0.56864,-0.25834 -0.52522,-1.3125 z"
         id="path851" />
      <path
         style="fill:#7389d0"
         d="m 533.25,542.31067 c 0.9625,-0.25152 2.5375,-0.25152 3.5,0 0.9625,0.25153 0.175,0.45733 -1.75,0.45733 -1.925,0 -2.7125,-0.2058 -1.75,-0.45733 z m -29.45252,-40.05542 c 4.56362,-0.18572 11.76362,-0.18468 16,0.002 4.23639,0.18698 0.50252,0.33893 -8.29748,0.33766 -8.8,-0.001 -12.26613,-0.15425 -7.70252,-0.33996 z M 445.15789,500 c 0,-1.375 0.22698,-1.9375 0.50439,-1.25 0.27741,0.6875 0.27741,1.8125 0,2.5 -0.27741,0.6875 -0.50439,0.125 -0.50439,-1.25 z M 421.25,468.25669 c 4.2625,-0.18745 11.2375,-0.18745 15.5,0 4.2625,0.18745 0.775,0.34082 -7.75,0.34082 -8.525,0 -12.0125,-0.15337 -7.75,-0.34082 z m 128.04571,-6.00082 c 4.28763,-0.1879 11.03763,-0.18676 15,0.003 3.96236,0.1893 0.45429,0.34304 -7.79571,0.34164 -8.25,-10e-4 -11.49193,-0.15629 -7.20429,-0.34419 z M 288.75,448.25749 c 3.9875,-0.18981 10.5125,-0.18981 14.5,0 3.9875,0.18982 0.725,0.34512 -7.25,0.34512 -7.975,0 -11.2375,-0.1553 -7.25,-0.34512 z m 83.01166,-154.96475 c 1.24391,-0.23919 3.04391,-0.23011 4,0.0202 0.95609,0.25029 -0.0617,0.446 -2.26166,0.4349 -2.2,-0.0111 -2.98225,-0.21589 -1.73834,-0.45508 z M 271.07895,119.41667 c 0.048,-1.16495 0.28494,-1.4019 0.60416,-0.60417 0.28887,0.72187 0.25335,1.58437 -0.0789,1.91667 -0.33229,0.33229 -0.56864,-0.25834 -0.52522,-1.3125 z M 310,72.5 c 1.86578,-1.925 3.61733,-3.5 3.89233,-3.5 0.275,0 -1.02655,1.575 -2.89233,3.5 -1.86578,1.925 -3.61733,3.5 -3.89233,3.5 -0.275,0 1.02655,-1.575 2.89233,-3.5 z M 430.87244,59.25 C 429.62857,57.663944 429.66394,57.628574 431.25,58.872445 432.91575,60.178814 433.44548,61 432.62244,61 c -0.20765,0 -0.99515,-0.7875 -1.75,-1.75 z"
         id="path849" />
      <path
         style="fill:#4562c3"
         d="m 571.19495,456.5 c 0.0204,-1.65 0.2445,-2.20394 0.49804,-1.23097 0.25354,0.97297 0.23687,2.32297 -0.0371,3 -0.27393,0.67703 -0.48137,-0.11903 -0.46099,-1.76903 z M 366.75,293.33772 c 0.6875,-0.27741 1.8125,-0.27741 2.5,0 0.6875,0.27741 0.125,0.50439 -1.25,0.50439 -1.375,0 -1.9375,-0.22698 -1.25,-0.50439 z m -6.98834,-1.04498 c 1.24391,-0.23919 3.04391,-0.23011 4,0.0202 0.95609,0.25029 -0.0617,0.446 -2.26166,0.4349 -2.2,-0.0111 -2.98225,-0.21589 -1.73834,-0.45508 z m -3.97247,-17.03415 c 3.45905,-0.19583 8.85905,-0.19422 12,0.004 3.14094,0.19781 0.31081,0.35803 -6.28919,0.35606 -6.6,-0.002 -9.16987,-0.16382 -5.71081,-0.35965 z m -1.58294,-8.99914 c 3.68844,-0.19186 9.98844,-0.19314 14,-0.003 4.01156,0.1903 0.99375,0.34727 -6.70625,0.34883 -7.7,0.002 -10.98219,-0.15414 -7.29375,-0.34599 z m -95.1273,-111.84278 c 0.048,-1.16495 0.28494,-1.4019 0.60416,-0.60417 0.28887,0.72187 0.25335,1.58437 -0.0789,1.91667 -0.33229,0.33229 -0.56864,-0.25834 -0.52522,-1.3125 z M 259.15789,147 c 0,-1.375 0.22698,-1.9375 0.50439,-1.25 0.27741,0.6875 0.27741,1.8125 0,2.5 -0.27741,0.6875 -0.50439,0.125 -0.50439,-1.25 z M 300,63.5 c 1.29175,-1.375 2.57363,-2.5 2.84863,-2.5 0.275,0 -0.55688,1.125 -1.84863,2.5 -1.29175,1.375 -2.57363,2.5 -2.84863,2.5 -0.275,0 0.55688,-1.125 1.84863,-2.5 z m -11,-0.812909 c 0,-0.1721 1.4625,-1.6346 3.25,-3.25 L 295.5,56.5 292.56291,59.75 C 289.82513,62.779455 289,63.459652 289,62.687091 Z m 55.8125,-23.370205 c 0.72187,-0.288871 1.58438,-0.253344 1.91667,0.07895 0.33229,0.332292 -0.25834,0.568641 -1.3125,0.52522 -1.16495,-0.04798 -1.4019,-0.284941 -0.60417,-0.604167 z m 13,-10 c 0.72187,-0.288871 1.58438,-0.253344 1.91667,0.07895 0.33229,0.332292 -0.25834,0.568641 -1.3125,0.52522 -1.16495,-0.04798 -1.4019,-0.284941 -0.60417,-0.604167 z"
         id="path847" />
      <path
         style="fill:#3d5cc0"
         d="m 63.844783,574.75537 c -5.081633,-4.10994 -4.845915,0.36661 -4.830041,-91.72788 0.01574,-91.33421 -0.144086,-88.38368 4.994221,-92.19638 2.431492,-1.80421 10.397976,-1.86158 257.999997,-1.85796 140.52007,0.002 262.54401,0.009 271.16431,0.0153 15.41558,0.0114 15.72413,0.0543 18.76581,2.61376 l 3.09254,2.60219 -0.26581,88.86233 c -0.25058,83.77099 -0.36812,88.96462 -2.0515,90.6478 -1.70418,1.70399 -14.2353,1.79714 -274.55152,2.04085 -217.64912,0.20378 -273.079474,0.002 -274.318007,-1 z M 418.91387,541.94422 c 8.43107,-1.36797 16.32231,-5.19422 20.05706,-9.72512 4.58997,-5.56843 6.33348,-12.12366 6.43806,-24.20582 L 445.5,497.5 429.25,497.22523 413,496.95046 v 9.46806 c 0,8.65042 -0.19193,9.60251 -2.22251,11.02478 -3.06267,2.14517 -7.38498,1.94921 -9.77749,-0.4433 -1.91667,-1.91667 -2,-3.33333 -2,-34 0,-30.66667 0.0833,-32.08333 2,-34 2.52834,-2.52834 8.1052,-2.64623 10.3029,-0.21779 1.17461,1.29792 1.69226,4.21906 1.90499,10.75 L 413.5,468.5 H 429 444.5 L 444.4524,456 c -0.055,-14.46967 -1.37132,-18.20683 -8.58861,-24.38455 -7.73742,-6.62295 -13.25442,-8.09583 -30.36384,-8.10628 -14.43368,-0.009 -15.23587,0.0998 -21.24748,2.87626 -7.95012,3.67181 -13.60403,9.69177 -15.68558,16.7011 -2.2895,7.70961 -2.30888,72.05208 -0.024,79.74606 3.80341,12.8075 16.66298,19.89048 36.45707,20.08036 4.125,0.0396 10.38624,-0.39636 13.91387,-0.96873 z M 551.5,540.49247 c 15.39569,-4.3478 22.7818,-16.59288 21.10223,-34.98437 -1.23499,-13.52332 -5.72116,-19.28803 -28.59679,-36.74682 -14.22609,-10.85741 -16.21419,-13.40776 -14.43027,-18.51128 0.79149,-2.26433 1.64359,-2.8062 4.82482,-3.06822 2.12496,-0.17502 4.36677,0.184 4.98179,0.79783 0.61502,0.61384 1.34322,4.13204 1.61822,7.81823 l 0.5,6.70216 14.6198,0.27599 14.61981,0.27598 0.5901,-2.9505 c 0.70142,-3.50714 -0.68267,-16.49915 -2.1563,-20.24038 -1.60692,-4.07962 -7.05406,-9.75907 -11.57873,-12.07252 -6.54851,-3.34824 -13.43629,-4.76398 -23.23934,-4.7767 -16.39416,-0.0213 -27.31994,4.97914 -32.76621,14.99615 -2.48559,4.57159 -2.97709,6.75187 -3.36403,14.92289 -0.83212,17.57167 1.53208,21.37228 23.82352,38.29779 8.49588,6.45078 16.01053,12.49929 16.69922,13.44113 1.80598,2.46982 1.59645,10.84302 -0.31927,12.75874 -1.64614,1.64615 -6.08676,2.07607 -8.11601,0.78577 C 528.39706,516.99635 527,512.2393 527,506.9349 V 502 H 511.5 496 v 8.3185 c 0,21.17647 8.10937,29.56916 31,32.08304 5.79973,0.63694 19.17505,-0.40529 24.5,-1.90907 z M 139.37885,538.25 c 0.29577,-1.5125 1.02084,-6.35 1.61125,-10.75 1.83955,-13.70897 0.8333,-12.5 10.40395,-12.5 9.69521,0 8.582,-1.64177 10.67934,15.75 l 1.23609,10.25 h 15.97307 15.97307 l -0.67146,-4.19903 c -0.36929,-2.30946 -5.114,-24.69696 -10.54379,-49.75 C 178.61059,461.99794 173.37859,437.7875 172.41372,433.25 L 170.6594,425 H 151.3297 C 140.69836,425 132,425.2494 132,425.55422 c 0,0.62277 -3.12165,14.87113 -16.0619,73.31239 -4.91595,22.20163 -8.9381,40.76413 -8.9381,41.25 0,0.48586 7.16425,0.88339 15.92054,0.88339 h 15.92055 z M 146,492.03435 c 0,-0.78936 4.38692,-30.75571 5.27524,-36.03435 0.13884,-0.825 1.30187,6.15 2.58452,15.5 1.28264,9.35 2.5627,18.0125 2.84457,19.25 0.48442,2.1268 0.20539,2.25 -5.09592,2.25 C 148.52378,493 146,492.56546 146,492.03435 Z m 83.83078,46.08614 c 7.19509,-5.12335 7.5011,-15.98787 0.62048,-22.02914 C 227.50811,513.50723 226.10001,513 221.8695,513 c -6.51895,0 -10.34937,2.2941 -13.01113,7.79257 -2.47653,5.11583 -2.08627,9.67427 1.22656,14.3267 4.31293,6.05695 13.49462,7.4525 19.74585,3.00122 z M 311,529 V 517 H 296.5 282 V 505.5 494 H 295.5 309 V 482 470 H 295.5 282 V 459.5 449 H 296.5 311 V 437 425 H 280.5 250 v 58 58 h 30.5 30.5 z m 34.38346,10.61314 c 7.20455,-3.01025 10.27392,-11.55801 6.75817,-18.82057 -2.684,-5.54441 -6.4817,-7.79257 -13.16357,-7.79257 -4.70304,0 -5.58526,0.37191 -9.01276,3.79941 -5.16903,5.16902 -5.95867,9.62517 -2.82513,15.94283 3.66135,7.38182 10.68733,10.02798 18.24329,6.8709 z m 133.44732,-1.49265 c 7.19509,-5.12335 7.5011,-15.98787 0.62048,-22.02914 C 476.50811,513.50723 475.10001,513 470.8695,513 c -6.51895,0 -10.34937,2.2941 -13.01113,7.79257 -2.47653,5.11583 -2.08627,9.67427 1.22656,14.3267 4.31293,6.05695 13.49462,7.4525 19.74585,3.00122 z M 343.60792,292.46506 c -0.93347,-0.93346 -1.56462,-2.01191 -1.40256,-2.39654 0.16205,-0.38464 1.86203,-3.68321 3.77774,-7.33017 l 3.4831,-6.63084 12.27672,-0.30375 12.27673,-0.30376 3.55846,6.77618 c 4.9546,9.43476 4.64942,10.11103 -4.83936,10.72382 -4.25824,0.275 -7.74147,0.11523 -7.7405,-0.35504 9.6e-4,-0.47026 -1.91075,-0.56008 -4.24825,-0.19958 -11.32193,1.7461 -15.41097,1.75079 -17.14208,0.0197 z M 336,265.12962 c -31.5086,-10.35677 -55.3531,-32.31024 -67.03561,-61.71926 -6.48087,-16.31464 -9.10992,-31.93958 -9.07097,-53.91036 0.07,-39.47171 10.90484,-68.549758 33.74952,-90.575335 C 325.92642,27.798737 368.62971,21.042833 406,41.149139 c 32.8778,17.689216 52.29277,47.943241 57.0552,88.908191 1.64639,14.16177 0.68514,39.65141 -1.93999,51.44267 -6.63622,29.80786 -20.61226,51.64382 -43.48064,67.93348 -12.99764,9.25851 -40.27231,20.57972 -42.17256,17.50505 -0.78889,-1.27646 -27.17097,-1.21846 -27.96201,0.0615 -0.88516,1.43223 -2.008,1.24961 -11.5,-1.87038 z M 284.24251,123.94884 c 1.03951,-1.28374 1.67744,-3.14694 1.41763,-4.14046 -0.25981,-0.99351 -0.034,-2.07735 0.50191,-2.40853 0.53587,-0.33119 0.73274,-1.23163 0.43751,-2.001 -0.29524,-0.76937 -0.0528,-1.39885 0.53881,-1.39885 0.59159,0 0.81659,-0.675 0.5,-1.5 -0.31658,-0.825 -0.0916,-1.5 0.5,-1.5 0.59159,0 0.82774,-0.64593 0.5248,-1.43539 -0.30295,-0.78947 -0.16732,-1.57697 0.3014,-1.75 0.46872,-0.17304 1.00594,-1.21461 1.19383,-2.31461 0.18788,-1.1 0.5878,-2.225 0.88872,-2.5 0.69065,-0.63117 6.03996,-11.672633 6.16299,-12.720966 0.0503,-0.428469 0.81108,-1.327222 1.69066,-1.997231 0.87957,-0.670008 1.17572,-1.232508 0.6581,-1.25 -0.51762,-0.01749 -0.0676,-0.692491 1,-1.5 1.06762,-0.807508 1.55378,-1.482508 1.08035,-1.5 -0.47344,-0.01749 0.20156,-0.916832 1.5,-1.998534 1.29843,-1.081702 2.09267,-1.981702 1.76497,-2 -0.32769,-0.0183 2.14731,-2.851377 5.5,-6.295731 3.3527,-3.444354 6.40252,-6.136826 6.77739,-5.98327 0.37487,0.153555 1.38737,-0.728465 2.25,-1.960044 0.86263,-1.23158 1.58273,-1.801609 1.60022,-1.26673 0.0175,0.534878 0.6925,0.099 1.5,-0.968624 0.80751,-1.067621 1.4682,-1.63696 1.4682,-1.265198 0,0.371762 2.64317,-0.66723 5.8737,-2.30887 C 333.10424,58.343161 336.25424,57 336.8737,57 337.49317,57 338,56.564123 338,56.031385 c 0,-0.532739 0.675,-0.709594 1.5,-0.393011 0.825,0.316582 1.5,0.119587 1.5,-0.437766 0,-0.557353 0.9,-0.778013 2,-0.490357 1.1,0.287656 2,0.03465 2,-0.562235 0,-0.596885 0.59307,-0.857663 1.31794,-0.579504 1.83572,0.704431 6.92166,-3.501739 6.27423,-5.188908 C 352.301,47.620822 352.48452,47 353,47 c 0.51548,0 0.66203,-0.7875 0.32568,-1.75 C 352.66006,43.345284 348,38.453526 348,39.659531 c 0,0.407258 -0.47244,0.268032 -1.04986,-0.309391 C 345.77165,38.171646 337,39.746952 337,41.137092 c 0,0.440076 -0.675,0.541117 -1.5,0.224534 -0.825,-0.316582 -1.5,-0.09158 -1.5,0.5 0,0.591583 -0.675,0.816583 -1.5,0.5 -0.825,-0.316582 -1.5,-0.173221 -1.5,0.318581 0,0.491801 -0.92224,0.963655 -2.04942,1.048563 C 326.26387,43.931153 314,50.804553 314,52.107958 c 0,0.555542 -0.40805,0.757887 -0.90678,0.449655 -0.49873,-0.308231 -2.97373,1.448424 -5.5,3.903679 C 305.06695,58.916546 303,60.638737 303,60.288382 303,59.938026 301.875,60.708255 300.5,62 c -1.375,1.291745 -2.5,2.749239 -2.5,3.238874 0,0.489635 -1.36901,2.042188 -3.04223,3.450118 -1.67323,1.407929 -2.8011,2.801015 -2.50637,3.095745 0.29473,0.29473 -0.36879,1.169526 -1.47449,1.94399 -1.1057,0.774464 -1.78043,1.780174 -1.49938,2.23491 0.28104,0.454736 -0.18995,1.095768 -1.04666,1.424515 -0.8567,0.328747 -1.3067,1.003747 -1,1.5 0.30671,0.496253 -0.002,1.118922 -0.68661,1.383709 -1.51773,0.587241 -10.17539,16.630338 -9.39547,17.410267 0.30579,0.305782 -0.12348,1.235418 -0.95392,2.065859 -0.83044,0.830443 -1.28429,2.097793 -1.00856,2.816343 0.27574,0.71855 0.0352,1.46185 -0.53462,1.65177 -0.56978,0.18993 -1.107,1.56868 -1.19382,3.06391 -0.0868,1.49522 -0.41808,2.7189 -0.73612,2.71928 -0.31804,3.9e-4 -1.10363,2.27676 -1.74575,5.05859 -0.96386,4.17564 -0.91027,5.55531 0.30721,7.90965 1.71338,3.31331 2.77325,3.81556 7.44304,3.52705 2.20449,-0.1362 4.10021,-1.04398 5.31626,-2.54574 z"
         id="path845" />
      <path
         style="fill:#3051bc"
         d="m 202.75,576.25003 c 74.3875,-0.14147 196.1125,-0.14147 270.5,0 74.3875,0.14147 13.525,0.25722 -135.25,0.25722 -148.775,0 -209.6375,-0.11575 -135.25,-0.25722 z M 615.47831,482.5 c -6e-5,-47.85 0.12204,-67.57132 0.27135,-43.82516 0.14931,23.74616 0.14936,62.89616 1.2e-4,87 -0.14924,24.10384 -0.27141,4.67516 -0.27147,-43.17484 z M 366.75,274.29427 c 1.2375,-0.23836 3.2625,-0.23836 4.5,0 1.2375,0.23835 0.225,0.43337 -2.25,0.43337 -2.475,0 -3.4875,-0.19502 -2.25,-0.43337 z m -14.5,-7.03326 c 3.1625,-0.19845 8.3375,-0.19845 11.5,0 3.1625,0.19845 0.575,0.36082 -5.75,0.36082 -6.325,0 -8.9125,-0.16237 -5.75,-0.36082 z M 283.20967,124.49326 c 0.39032,-0.60555 1.1493,-2.20176 1.68661,-3.54713 0.61764,-1.54648 1.00026,-1.84325 1.04033,-0.80691 0.0349,0.90156 -0.72411,2.49777 -1.68661,3.54713 -0.9625,1.04935 -1.43065,1.41246 -1.04033,0.80691 z m -13.13072,-5.07659 c 0.048,-1.16495 0.28494,-1.4019 0.60416,-0.60417 0.28887,0.72187 0.25335,1.58437 -0.0789,1.91667 -0.33229,0.33229 -0.56864,-0.25834 -0.52522,-1.3125 z m 1,-4 c 0.048,-1.16495 0.28494,-1.4019 0.60416,-0.60417 0.28887,0.72187 0.25335,1.58437 -0.0789,1.91667 -0.33229,0.33229 -0.56864,-0.25834 -0.52522,-1.3125 z m 1,-4 c 0.048,-1.16495 0.28494,-1.4019 0.60416,-0.60417 0.28887,0.72187 0.25335,1.58437 -0.0789,1.91667 -0.33229,0.33229 -0.56864,-0.25834 -0.52522,-1.3125 z M 275.03063,102.5 c 0,-0.55 0.43621,-1.675 0.96937,-2.5 0.53316,-0.825 0.96937,-1.05 0.96937,-0.5 0,0.55 -0.43621,1.675 -0.96937,2.5 -0.53316,0.825 -0.96937,1.05 -0.96937,0.5 z m 16,0 c 0,-0.55 0.43621,-1.675 0.96937,-2.5 0.53316,-0.825 0.96937,-1.05 0.96937,-0.5 0,0.55 -0.43621,1.675 -0.96937,2.5 -0.53316,0.825 -0.96937,1.05 -0.96937,0.5 z M 277,97.63815 C 277,96.552699 282.96805,85 283.52879,85 c 0.275,0 -0.90981,2.8125 -2.63291,6.25 C 277.62986,97.765535 277,98.798327 277,97.63815 Z M 296,92 c 0.5887,-1.1 1.29537,-2 1.57037,-2 0.275,0 0.0183,0.9 -0.57037,2 -0.5887,1.1 -1.29537,2 -1.57037,2 -0.275,0 -0.0183,-0.9 0.57037,-2 z M 285,82 c 0.5887,-1.1 1.29537,-2 1.57037,-2 0.275,0 0.0183,0.9 -0.57037,2 -0.5887,1.1 -1.29537,2 -1.57037,2 -0.275,0 -0.0183,-0.9 0.57037,-2 z m 17,0.622445 c 0,-0.207656 0.7875,-0.995156 1.75,-1.75 1.58606,-1.243871 1.62143,-1.208501 0.37756,0.377555 C 302.82119,82.915748 302,83.445479 302,82.622445 Z M 310,73.5 c 2.98742,-3.025 5.65668,-5.5 5.93168,-5.5 0.275,0 -1.94426,2.475 -4.93168,5.5 -2.98742,3.025 -5.65668,5.5 -5.93168,5.5 -0.275,0 1.94426,-2.475 4.93168,-5.5 z m -21,2.122445 c 0,-0.207656 0.7875,-0.995156 1.75,-1.75 1.58606,-1.243871 1.62143,-1.208501 0.37756,0.377555 C 289.82119,75.915748 289,76.445479 289,75.622445 Z M 294,69.5 c 1.29175,-1.375 2.57363,-2.5 2.84863,-2.5 0.275,0 -0.55688,1.125 -1.84863,2.5 -1.29175,1.375 -2.57363,2.5 -2.84863,2.5 -0.275,0 0.55688,-1.125 1.84863,-2.5 z m 23,-1.877555 c 0,-0.207656 0.7875,-0.995156 1.75,-1.75 1.58606,-1.243871 1.62143,-1.208501 0.37756,0.377555 C 317.82119,67.915748 317,68.445479 317,67.622445 Z M 300,62.5 c 1.29175,-1.375 2.57363,-2.5 2.84863,-2.5 0.275,0 -0.55688,1.125 -1.84863,2.5 -1.29175,1.375 -2.57363,2.5 -2.84863,2.5 -0.275,0 0.55688,-1.125 1.84863,-2.5 z m 24,0.05136 c 0,-0.275 1.35,-1.198112 3,-2.05136 1.65,-0.853248 3,-1.32636 3,-1.05136 0,0.275 -1.35,1.198112 -3,2.05136 -1.65,0.853248 -3,1.32636 -3,1.05136 z M 306.5,57 c 0.99549,-1.1 2.03498,-2 2.30998,-2 0.275,0 -0.31449,0.9 -1.30998,2 -0.99549,1.1 -2.03498,2 -2.30998,2 -0.275,0 0.31449,-0.9 1.30998,-2 z m 25.5,1 c 0.825,-0.533156 1.95,-0.969374 2.5,-0.969374 0.55,0 0.325,0.436218 -0.5,0.969374 -0.825,0.533156 -1.95,0.969374 -2.5,0.969374 -0.55,0 -0.325,-0.436218 0.5,-0.969374 z m -22,-3.377555 c 0,-0.207656 0.7875,-0.995156 1.75,-1.75 1.58606,-1.243871 1.62143,-1.208501 0.37756,0.377555 C 310.82119,54.915748 310,55.445479 310,54.622445 Z m 32.8125,-0.305559 c 0.72187,-0.288871 1.58438,-0.253344 1.91667,0.07895 0.33229,0.332292 -0.25834,0.568641 -1.3125,0.52522 -1.16495,-0.04798 -1.4019,-0.284941 -0.60417,-0.604167 z m 7.79345,-3.468945 c 1.04173,-1.458633 2.09405,-2.458633 2.33849,-2.222223 0.24445,0.236411 -0.60787,1.429838 -1.89404,2.65206 L 348.7119,53.5 Z M 314,51.570368 c 0,-0.275 0.9,-0.981666 2,-1.570368 1.1,-0.588702 2,-0.845368 2,-0.570368 0,0.275 -0.9,0.981666 -2,1.570368 -1.1,0.588702 -2,0.845368 -2,0.570368 z m 5,-3.063041 c 0,-0.677431 8.12258,-4.718082 8.57497,-4.265695 0.20963,0.209635 -1.63398,1.360179 -4.09691,2.556765 C 321.01513,47.994982 319,48.764001 319,48.507327 Z m 32.56429,-5.214199 c -0.54268,-1.425198 -0.42782,-1.540062 0.5598,-0.559795 0.68342,0.678334 0.99067,1.485241 0.68278,1.793128 -0.30789,0.307888 -0.86705,-0.247112 -1.24258,-1.233333 z M 337.8125,40.316886 c 0.72187,-0.288871 1.58438,-0.253344 1.91667,0.07895 0.33229,0.332292 -0.25834,0.568641 -1.3125,0.52522 -1.16495,-0.04798 -1.4019,-0.284941 -0.60417,-0.604167 z m 4,-1 c 0.72187,-0.288871 1.58438,-0.253344 1.91667,0.07895 0.33229,0.332292 -0.25834,0.568641 -1.3125,0.52522 -1.16495,-0.04798 -1.4019,-0.284941 -0.60417,-0.604167 z"
         id="path843" />
      <path
         style="fill:#0c101f"
         d="M 97.381539,379.97702 C 101.20243,334.16121 124.74963,295.87368 159.5,278.97296 c 21.83261,-10.61821 42.25893,-12.29019 62.96304,-5.15378 21.10475,7.27449 37.44257,24.71844 45.59214,48.67887 4.51739,13.28152 6.07249,23.94216 6.67401,45.75195 l 0.5447,19.75 h -3.01194 c -3.8573,0 -4.25996,-1.82802 -4.26785,-19.375 -0.0149,-33.14657 -7.85371,-56.59125 -24.45438,-73.13918 -9.12724,-9.09825 -16.28393,-13.32438 -28.01333,-16.5423 -6.73081,-1.84657 -9.76706,-2.10296 -20.46489,-1.72814 -10.82129,0.37914 -13.86906,0.88569 -21.99998,3.65645 -13.57193,4.62489 -23.82753,11.03399 -34.60861,21.62817 -10.01006,9.83652 -15.06735,16.76196 -21.17723,29 -7.33488,14.69169 -11.77991,30.93906 -12.92688,47.25 l -0.65045,9.25 h -3.49295 -3.492952 z m 472.663351,2.33017 c -1.62902,-8.44154 -6.49874,-21.79047 -10.27019,-28.15278 -10.72812,-18.09797 -30.32948,-27.88321 -50.2747,-25.09774 -15.76449,2.20161 -29.58915,8.72558 -51,24.06735 -24.47209,17.53526 -37.36255,24.88676 -52.27749,29.81413 -15.95049,5.26948 -27.58709,4.67766 -36.72251,-1.86767 -14.92269,-10.69178 -19.44578,-37.86609 -12.92085,-77.62716 L 358.29293,293 h 3.35354 c 1.84444,0 3.35353,0.40528 3.35353,0.90063 0,0.49534 -0.86768,6.00784 -1.92818,12.25 -6.09762,35.891 -1.91927,61.60019 11.34369,69.79715 15.47093,9.56157 39.46986,1.05234 80.3284,-28.48178 35.659,-25.77571 62.78801,-31.77446 87.51299,-19.35084 9.74575,4.89697 20.18235,16.09633 25.98566,27.88484 4.30851,8.75208 8.21879,21.19682 8.95501,28.5 0.27354,2.71344 -1e-4,3.02934 -2.8648,3.30719 -3.11997,0.3026 -3.18395,0.22052 -4.28788,-5.5 z M 346.12214,273.22822 c -2.17604,-4.06596 0.28985,-4.99166 14.54906,-5.46172 7.24416,-0.23881 13.88166,-0.0366 14.75,0.44934 1.2481,0.69847 2.3728,5.63417 1.3288,5.83139 -0.1375,0.026 -6.84997,0.29151 -14.91661,0.59007 -13.82175,0.51158 -14.72678,0.43041 -15.71125,-1.40908 z"
         id="path841" />
    </g>
  </g>
</svg>
